<svg width="32" height="32" viewBox="0 0 32 32" fill="none" xmlns="http://www.w3.org/2000/svg"><rect x="0.5" y="0.5" width="31" height="31" rx="7.5" stroke="#CACFD8"></rect><g clip-path="url(#clip0_3197_3847)"><path d="M8 10.1345C8 9.61965 8.18019 9.19494 8.54054 8.86033C8.9009 8.5257 9.36937 8.3584 9.94595 8.3584C10.5122 8.3584 10.9704 8.52312 11.3205 8.85261C11.6808 9.19238 11.861 9.63509 11.861 10.1808C11.861 10.675 11.686 11.0868 11.3359 11.4163C10.9756 11.7561 10.5019 11.926 9.91506 11.926H9.89961C9.33333 11.926 8.87517 11.7561 8.5251 11.4163C8.17503 11.0765 8 10.6493 8 10.1345ZM8.20077 23.648V13.3314H11.6293V23.648H8.20077ZM13.529 23.648H16.9575V17.8874C16.9575 17.527 16.9987 17.249 17.0811 17.0534C17.2252 16.7033 17.444 16.4073 17.7375 16.1653C18.0309 15.9234 18.399 15.8024 18.8417 15.8024C19.9949 15.8024 20.5714 16.5798 20.5714 18.1345V23.648H24V17.7329C24 16.2091 23.6396 15.0534 22.9189 14.2657C22.1982 13.4781 21.2458 13.0843 20.0618 13.0843C18.7336 13.0843 17.6988 13.6557 16.9575 14.7986V14.8294H16.9421L16.9575 14.7986V13.3314H13.529C13.5495 13.6608 13.5598 14.6853 13.5598 16.4047C13.5598 18.1242 13.5495 20.5386 13.529 23.648Z" fill="#fff"></path></g><defs><clipPath id="clip0_3197_3847"><rect width="16" height="16" fill="white" transform="translate(8 8)"></rect></clipPath></defs></svg>