<svg width="32" height="32" viewBox="0 0 32 32" fill="none" xmlns="http://www.w3.org/2000/svg"><rect x="0.5" y="0.5" width="31" height="31" rx="7.5" stroke="#CACFD8"></rect><path d="M23.9563 12.7014C23.9179 11.8495 23.7803 11.2666 23.5851 10.7574C23.3802 10.2322 23.1082 9.78383 22.6633 9.34187C22.2184 8.89992 21.7735 8.6213 21.2486 8.41954C20.7397 8.22098 20.1572 8.08647 19.3058 8.04804C18.4512 8.00961 18.1792 8 16.0091 8C13.8359 8 13.5639 8.00961 12.7125 8.04804C11.8611 8.08647 11.2786 8.22418 10.7697 8.41954C10.2416 8.6245 9.7935 8.89672 9.35181 9.34187C8.91012 9.78703 8.63167 10.2322 8.43003 10.7574C8.23479 11.2666 8.09716 11.8495 8.05875 12.7014C8.02034 13.5564 8.01074 13.8287 8.01074 16C8.01074 18.1745 8.02034 18.4468 8.05875 19.2986C8.09716 20.1505 8.23479 20.7334 8.43003 21.2426C8.63487 21.7678 8.90692 22.2162 9.35181 22.6581C9.7935 23.1033 10.2416 23.3787 10.7665 23.5805C11.2754 23.779 11.8579 23.9135 12.7093 23.952C13.5639 23.9904 13.8359 24 16.0059 24C18.1792 24 18.4512 23.9904 19.3026 23.952C20.154 23.9135 20.7365 23.7758 21.2454 23.5805C21.7703 23.3755 22.2184 23.1033 22.6601 22.6581C23.1018 22.213 23.3802 21.7678 23.5819 21.2426C23.7803 20.7334 23.9147 20.1505 23.9531 19.2986C23.9915 18.4436 24.0011 18.1713 24.0011 16C24.0011 13.8287 23.9947 13.5532 23.9563 12.7014ZM22.5192 19.2346C22.484 20.016 22.3528 20.442 22.244 20.7206C22.1 21.0921 21.9239 21.3611 21.6423 21.6429C21.3606 21.9247 21.095 22.0945 20.7205 22.245C20.4388 22.3539 20.0131 22.4852 19.2354 22.5204C18.3936 22.5588 18.1408 22.5685 16.0027 22.5685C13.8647 22.5685 13.6119 22.5588 12.7701 22.5204C11.9891 22.4852 11.5635 22.3539 11.285 22.245C10.9137 22.1009 10.6449 21.9247 10.3632 21.6429C10.0816 21.3611 9.91192 21.0953 9.76149 20.7206C9.65267 20.4388 9.52144 20.0128 9.48624 19.2346C9.44783 18.3923 9.43823 18.1393 9.43823 16C9.43823 13.8607 9.44783 13.6077 9.48624 12.7654C9.52144 11.984 9.65267 11.558 9.76149 11.2794C9.90552 10.9079 10.0816 10.6389 10.3632 10.3571C10.6449 10.0753 10.9105 9.90552 11.285 9.755C11.5667 9.64612 11.9923 9.51481 12.7701 9.47958C13.6119 9.44115 13.8647 9.43155 16.0027 9.43155C18.1408 9.43155 18.3936 9.44115 19.2354 9.47958C20.0163 9.51481 20.442 9.64612 20.7205 9.755C21.0918 9.89912 21.3606 10.0753 21.6423 10.3571C21.9239 10.6389 22.0936 10.9047 22.244 11.2794C22.3528 11.5612 22.484 11.9872 22.5192 12.7654C22.5577 13.6077 22.5673 13.8607 22.5673 16C22.5673 18.1393 22.5545 18.3923 22.5192 19.2346Z" fill="#fff"></path><path d="M16.0012 11.8879C13.7288 11.8879 11.8916 13.7294 11.8916 16C11.8916 18.2738 13.732 20.1121 16.0012 20.1121C18.2705 20.1121 20.1108 18.2674 20.1108 16C20.1108 13.7262 18.2737 11.8879 16.0012 11.8879ZM16.0012 18.6678C14.5289 18.6678 13.3351 17.4732 13.3351 16C13.3351 14.5269 14.5289 13.3323 16.0012 13.3323C17.4735 13.3323 18.6674 14.5269 18.6674 16C18.6674 17.4732 17.4735 18.6678 16.0012 18.6678Z" fill="#fff"></path><path d="M20.2707 12.6885C20.801 12.6885 21.2309 12.2584 21.2309 11.7277C21.2309 11.1971 20.801 10.767 20.2707 10.767C19.7404 10.767 19.3105 11.1971 19.3105 11.7277C19.3105 12.2584 19.7404 12.6885 20.2707 12.6885Z" fill="#fff"></path><path d="M8 16C8 18.1745 8.0096 18.4468 8.04801 19.2986C8.08642 20.1505 8.22404 20.7334 8.41928 21.2426C8.62412 21.7678 8.89618 22.2162 9.34107 22.6581C9.78276 23.1001 10.2308 23.3787 10.7558 23.5805C11.2647 23.779 11.8472 23.9135 12.6985 23.952C13.5531 23.9904 13.8252 24 15.9952 24C18.1684 24 18.4405 23.9904 19.2919 23.952C20.1432 23.9135 20.7257 23.7758 21.2346 23.5805C21.7596 23.3755 22.2076 23.1033 22.6493 22.6581C23.091 22.2162 23.3695 21.7678 23.5711 21.2426C23.7696 20.7334 23.904 20.1505 23.9424 19.2986C23.9808 18.4436 23.9904 18.1713 23.9904 16C23.9904 13.8255 23.9808 13.5532 23.9424 12.7014C23.904 11.8495 23.7664 11.2666 23.5711 10.7574C23.3663 10.2322 23.0942 9.78383 22.6493 9.34187C22.2108 8.89672 21.7628 8.6213 21.2378 8.41954C20.7289 8.22098 20.1464 8.08647 19.2951 8.04804C18.4405 8.00961 18.1684 8 15.9984 8C13.8252 8 13.5531 8.00961 12.7017 8.04804C11.8504 8.08647 11.2679 8.22418 10.759 8.41954C10.234 8.6245 9.78596 8.89672 9.34427 9.34187C8.90258 9.78703 8.62412 10.2322 8.42248 10.7574C8.22404 11.2666 8.08642 11.8495 8.04801 12.7014C8.0096 13.5532 8 13.8255 8 16ZM9.44349 16C9.44349 13.8639 9.45309 13.6077 9.4915 12.7654C9.52671 11.984 9.65793 11.558 9.76675 11.2794C9.91078 10.9079 10.0868 10.6389 10.3685 10.3571C10.6501 10.0753 10.9158 9.90552 11.2903 9.755C11.5719 9.64612 11.9976 9.51481 12.7754 9.47958C13.6171 9.44115 13.87 9.43155 16.008 9.43155C18.146 9.43155 18.3989 9.44115 19.2407 9.47958C20.0216 9.51481 20.4473 9.64612 20.7257 9.755C21.097 9.89912 21.3659 10.0753 21.6475 10.3571C21.9292 10.6389 22.0988 10.9047 22.2493 11.2794C22.3581 11.5612 22.4893 11.9872 22.5245 12.7654C22.5629 13.6077 22.5725 13.8607 22.5725 16C22.5725 18.1393 22.5629 18.3923 22.5245 19.2346C22.4893 20.016 22.3581 20.442 22.2493 20.7206C22.1052 21.0921 21.9292 21.3611 21.6475 21.6429C21.3659 21.9247 21.1002 22.0945 20.7257 22.245C20.4441 22.3539 20.0184 22.4852 19.2407 22.5204C18.3989 22.5588 18.146 22.5685 16.008 22.5685C13.87 22.5685 13.6171 22.5588 12.7754 22.5204C11.9944 22.4852 11.5687 22.3539 11.2903 22.245C10.919 22.1009 10.6501 21.9247 10.3685 21.6429C10.0868 21.3611 9.91718 21.0953 9.76675 20.7206C9.65793 20.4388 9.52671 20.0128 9.4915 19.2346C9.44989 18.3923 9.44349 18.1361 9.44349 16Z" fill="#fff"></path></svg>