<svg width="32" height="32" viewBox="0 0 32 32" fill="none" xmlns="http://www.w3.org/2000/svg"><rect x="0.5" y="0.5" width="31" height="31" rx="7.5" stroke="#CACFD8"></rect><path d="M19.4936 8H16.7314V18.8985C16.7314 20.1971 15.669 21.2638 14.3469 21.2638C13.0248 21.2638 11.9624 20.1971 11.9624 18.8985C11.9624 17.6232 13.0012 16.5797 14.2761 16.5333V13.7971C11.4666 13.8435 9.2002 16.0928 9.2002 18.8985C9.2002 21.7276 11.5139 24 14.3705 24C17.2272 24 19.5408 21.7044 19.5408 18.8985V13.3101C20.5796 14.0522 21.8545 14.4928 23.2002 14.516V11.7797C21.1226 11.7101 19.4936 10.0406 19.4936 8Z" fill="#fff"></path></svg>