<svg width="120" height="22" viewBox="0 0 120 22" fill="red" xmlns="http://www.w3.org/2000/svg">
<path fill-rule="evenodd" clip-rule="evenodd" d="M14.1493 19.7857C15.4276 18.6103 16.0668 17.1533 16.0668 15.3903C16.0668 14.2638 15.791 13.2721 15.2521 12.4028C14.7007 11.5458 13.9488 10.8601 12.9837 10.3704C14.4751 9.30517 15.2145 7.83593 15.2145 5.9749C15.2145 4.27303 14.5879 2.85277 13.3221 1.72635C12.0814 0.575453 10.565 0 8.76027 0H0V21.5488H9.44956C11.3044 21.5488 12.871 20.9611 14.1493 19.7857ZM3.62191 3.33027H8.76027C9.56235 3.33027 10.2266 3.61188 10.778 4.16284C11.3294 4.70156 11.5926 5.36272 11.5926 6.15855C11.5926 6.95439 11.3169 7.64003 10.778 8.191C10.2266 8.72972 9.56235 8.98684 8.76027 8.98684H3.62191V3.33027ZM3.62191 12.1824H9.44956C10.2892 12.1824 10.9911 12.4763 11.555 13.0762C12.1441 13.6517 12.4323 14.3618 12.4323 15.1944C12.4323 16.0269 12.1441 16.7493 11.555 17.3492C10.9911 17.9247 10.2892 18.2063 9.44956 18.2063H3.62191V12.1824Z" fill="white"/>
<path fill-rule="evenodd" clip-rule="evenodd" d="M25.2739 5.81391C22.8426 5.81391 20.8374 6.59751 19.2833 8.15245C17.7293 9.69515 16.9523 11.6052 16.9523 13.907C16.9523 16.2455 17.7418 18.18 19.3209 19.7227C20.9 21.2409 22.9679 22 25.5246 22C28.57 22 30.8635 20.8858 32.4301 18.6453L29.6228 17.0413C28.7204 18.3147 27.3669 18.9513 25.5622 18.9513C24.2588 18.9513 23.1559 18.6453 22.2536 18.0331C21.3512 17.3964 20.7747 16.4904 20.5241 15.3272H33.0567C33.1445 14.7518 33.182 14.2865 33.182 13.9437C33.182 11.6909 32.4301 9.76861 30.9513 8.18918C29.4724 6.60975 27.5799 5.81391 25.2739 5.81391ZM20.4865 12.6214C20.712 11.446 21.251 10.5277 22.0906 9.85432C22.9303 9.18092 23.9831 8.83809 25.2363 8.83809C26.3517 8.83809 27.3167 9.15643 28.1313 9.7931C28.971 10.4298 29.51 11.3725 29.7356 12.6214H20.4865Z" fill="white"/>
<path fill-rule="evenodd" clip-rule="evenodd" d="M59.4931 18.0272C60.3955 18.6394 61.4983 18.9455 62.8017 18.9455C64.6064 18.9455 65.9599 18.3088 66.8748 17.0355L69.6821 18.6394C68.1281 20.8799 65.8221 21.9941 62.7766 21.9941C60.22 21.9941 58.1521 21.235 56.573 19.7168C54.9939 18.1741 54.2044 16.2396 54.2044 13.9011C54.2044 11.5993 54.9814 9.68926 56.5354 8.14656C58.0895 6.59162 60.0947 5.80803 62.526 5.80803C64.832 5.80803 66.7244 6.60386 68.1907 8.18329C69.6821 9.76272 70.4215 11.685 70.4215 13.9378C70.4215 14.2806 70.3839 14.7459 70.2962 15.3213H57.7636C58.0143 16.4845 58.5908 17.3905 59.4931 18.0272ZM62.4884 8.81996C61.2351 8.81996 60.1824 9.16279 59.3427 9.83619C58.503 10.5218 57.9641 11.4401 57.726 12.6033H66.9876C66.762 11.3544 66.2231 10.4116 65.3834 9.77496C64.5688 9.1383 63.6038 8.81996 62.4884 8.81996Z" fill="white"/>
<path fill-rule="evenodd" clip-rule="evenodd" d="M120 13.9378C120 11.685 119.261 9.76272 117.769 8.18329C116.29 6.60386 114.41 5.80803 112.092 5.80803C109.661 5.80803 107.655 6.59162 106.101 8.14656C104.547 9.68926 103.77 11.5993 103.77 13.9011C103.77 16.2396 104.56 18.1741 106.139 19.7168C107.718 21.235 109.786 21.9941 112.343 21.9941C115.388 21.9941 117.694 20.88 119.248 18.6394L116.441 17.0355C115.538 18.3088 114.185 18.9455 112.38 18.9455C111.077 18.9455 109.974 18.6394 109.072 18.0272C108.169 17.3905 107.593 16.4845 107.342 15.3213H119.875C119.962 14.7459 120 14.2806 120 13.9378ZM107.305 12.6155C107.53 11.4401 108.069 10.5218 108.909 9.84843C109.748 9.17503 110.801 8.83221 112.054 8.83221C113.17 8.83221 114.135 9.15054 114.949 9.78721C115.789 10.4239 116.328 11.3666 116.554 12.6155H107.305Z" fill="white"/>
<path d="M80.0019 9.57054C78.7111 9.48484 77.5706 9.79093 76.6056 10.4888C75.6406 11.1622 75.1518 12.2886 75.1518 13.8803V21.6305H71.7555V6.24027H75.1518V8.82368C76.0166 6.91367 77.6332 5.95867 80.0019 5.95867V9.57054Z" fill="white"/>
<path d="M43.458 18.6386C42.5971 18.6753 41.8734 18.6875 41.2995 18.6753C40.738 18.6386 40.3013 18.4796 40.0143 18.2106C39.7274 17.9293 39.5776 17.4647 39.5776 16.8288V9.44263H46.0158V16.8165C46.0158 18.822 46.5773 20.2039 47.7127 20.9621C48.8357 21.6958 50.7072 21.9159 53.29 21.6102V18.6264C52.4291 18.6631 51.7054 18.6753 51.1315 18.6631C50.57 18.6264 50.1333 18.4674 49.8463 18.1984C49.5469 17.9171 49.4096 17.4524 49.4096 16.8165V9.44263H53.3025V6.25093H49.4096V1.94643L46.0283 2.92473V6.23871H39.5901V1.94643L36.2088 2.92473V6.23871H33.182V9.4304H36.1839V16.8043C36.1839 18.8098 36.7453 20.1917 37.8808 20.9498C39.0162 21.6836 40.8753 21.9037 43.458 21.5979V18.6386Z" fill="white"/>
<path d="M91.8815 10.8293L98.5614 0.0548549H102.434V21.6037H98.8121V6.23789L92.1071 17.0735H91.6685L84.951 6.21341V21.6037H81.3291V0.0548549H85.2393L91.8815 10.8293Z" fill="white"/>
</svg>
